<?xml version="1.0" encoding="UTF-8" standalone="no"?>
<!DOCTYPE svg PUBLIC "-//W3C//DTD SVG 1.1//EN" "http://www.w3.org/Graphics/SVG/1.1/DTD/svg11.dtd">
<svg width="100%" height="100%" viewBox="0 0 817 460" version="1.1" xmlns="http://www.w3.org/2000/svg" xmlns:xlink="http://www.w3.org/1999/xlink" xml:space="preserve" xmlns:serif="http://www.serif.com/" style="fill-rule:evenodd;clip-rule:evenodd;stroke-linejoin:round;stroke-miterlimit:2;">
    <g id="continent">
        <path id="USA" d="M124.155,175.988C125.611,183.136 132.094,207.063 139.54,212.55C160.016,227.637 193.495,218.544 193.495,218.544C210.49,212.668 215.096,225.215 215.096,225.215C221.608,240.939 224.943,230 224.943,230C222.72,222.078 228.946,209.025 228.946,209.025C233.662,177.011 251.034,171.551 251.034,171.551C280.318,160.383 230.932,134.325 230.932,134.325C213.312,124.646 210.334,142.763 210.334,142.763C205.37,158.894 191.721,148.719 191.721,148.719C184.772,140.281 186.322,122.165 186.322,122.165C189.112,108.764 182.787,111.529 182.787,111.529C179.56,120.996 170.58,118.702 170.58,118.702C166.133,123.149 144.373,115.048 144.373,115.048C143.261,111.395 136.868,111.529 136.868,111.529C131.827,112.083 109.207,117.137 109.207,117.137C96.272,105.423 45.299,118.493 45.299,118.493C34.626,124.796 45.609,136.405 45.609,136.405C49.021,137.956 49.952,142.92 49.952,142.92C47.781,154.708 54.295,158.43 54.295,158.43C61.43,166.496 80.043,150.054 80.043,150.054C102.068,141.368 124.155,175.988 124.155,175.988Z" style="fill:rgb(43,157,2);"/>
        <path id="ameriquedusudest" d="M238.782,415.916C253.117,439.618 265.819,275.524 251.417,269.172C251.417,269.172 285.752,279.847 301.514,287.985C301.514,287.985 318.35,295.927 309.138,326.104C309.138,326.104 304.999,357.701 279.189,367.628C279.189,367.628 257.102,384.007 258.839,416.766C258.839,416.766 254.124,439.423 238.737,415.847L238.782,415.916Z" style="fill:rgb(43,157,2);"/>
        <g id="ameriquesudouest">
            <path id="amerique-du-sud" serif:id="amerique du sud" d="M238.737,415.847C254.124,439.423 268.682,274.106 251.417,269.172C244.741,267.264 239.597,266.593 232.76,268.361C225.231,270.31 223.094,279.558 222.427,285.983C220.859,301.075 227.477,316.984 239.792,326.009C253.441,339.038 244.445,369.129 244.445,369.129C234.518,399.22 238.737,415.847 238.737,415.847Z" style="fill:rgb(43,157,2);"/>
            <path id="ile---équateur" serif:id="ile - équateur" d="M192.437,293.253C193.237,292.665 194.137,292.193 195.076,291.87C198.906,290.554 202.275,292.006 205.163,294.501C206.897,295.998 208.856,297.94 207.76,300.417C207.324,301.403 206.286,303.126 205.508,303.867C204.013,305.291 201.469,305.149 199.667,304.542C195.131,303.017 191.895,298.033 192.437,293.253Z" style="fill:rgb(43,157,2);"/>
        </g>
        <path id="mexique" d="M222.646,292.631C223.727,283.144 222.441,282.841 225.804,274.928C218.657,270.759 213.349,254.757 213.349,254.757C211.125,242.051 203.025,241.257 203.025,241.257C188.889,248.087 186.322,240.304 186.322,240.304C180.26,222.039 193.495,218.544 193.495,218.544C194.029,218.36 196.148,217.86 196.011,216.755C195.871,215.625 193.658,215.413 193.01,215.338C187.388,214.689 181.784,213.752 176.13,213.5C163.615,212.942 151.071,212.438 138.552,212.909C137.076,212.965 136.812,216.986 136.812,216.986C143.562,244.186 154.013,242.844 154.013,242.844C157.952,240.556 154.648,234.832 154.648,234.832C151.091,226.184 154.394,223.403 154.394,223.403C158.993,225.529 161.682,230.555 163.984,234.832C163.587,245.432 179.469,257.982 179.469,257.982C185.624,259.372 202.5,267.678 202.5,267.678C218.78,275.985 222.646,292.631 222.646,292.631Z" style="fill:rgb(43,157,2);"/>
        <g id="canada">
            <path d="M138.976,94.199C140.216,107.538 163.172,101.023 163.172,101.023C219.321,119.636 197.916,95.439 197.916,95.439C189.851,81.48 201.949,71.243 201.949,71.243C224.905,33.397 178.373,51.699 178.373,51.699C151.074,60.385 138.976,94.199 138.976,94.199Z" style="fill:rgb(43,157,2);"/>
            <path d="M214.469,97.18C213.093,97.18 211.971,95.852 212.524,94.468C212.975,93.339 215.141,92.308 216.19,92.106C221.2,91.141 224.266,90.744 229.19,92.52C238.448,95.86 244.467,104.36 248.649,112.809C267.836,128.819 240.898,127.294 240.898,127.294C227.43,126.277 225.142,114.079 225.142,114.079C223.999,105.82 214.469,97.18 214.469,97.18Z" style="fill:rgb(43,157,2);"/>
        </g>
        <g id="groenland" transform="matrix(1,0,0,1,-14.7351,-0.775537)">
            <path d="M266.288,43.41C276.463,31.001 339.994,36.213 339.994,36.213C357.366,43.658 343.221,57.804 343.221,57.804C339.994,58.548 339.25,66.241 339.25,66.241C336.272,106.693 329.075,105.204 329.075,105.204C317.411,108.927 304.01,120.839 304.01,120.839C297.061,144.167 282.419,129.548 282.419,129.548C272.74,125.104 266.536,96.959 266.536,96.959C262.069,79.035 241.719,80.635 241.719,80.635C226.084,72.446 237.643,61.526 237.643,61.526C245.977,56.314 266.288,43.41 266.288,43.41Z" style="fill:rgb(43,157,2);"/>
        </g>
        <path id="polynésie" d="M61.006,250.91C61.733,250.692 62.487,250.547 63.244,250.488C67.698,250.142 68.962,255.655 69.718,258.925C70.275,261.335 71.268,265.974 67.756,266.693C67.343,266.778 66.908,266.8 66.49,266.74C65.654,266.62 64.821,266.437 64.024,266.157C58.147,260.757 61.006,250.91 61.006,250.91" style="fill:rgb(43,157,2);"/>
        <path id="afriqueSud" d="M419.779,340.353C418.222,337.24 414.343,325.079 414.897,322.53C417.655,309.842 450.012,308.4 459.553,320.48C465.705,328.269 454.833,349.66 454.833,349.66C438.702,370.134 419.779,340.353 419.779,340.353Z" style="fill:rgb(43,157,2);"/>
        <g id="afriqueEst">
            <path id="afrique" d="M438.745,293.119C439.781,282.682 437.388,274.361 433.259,264.929C428.608,254.306 426.48,255.607 422.342,244.976C419.68,238.138 426.269,234.341 432.192,235.015C436.399,235.494 440.604,236.151 444.704,237.21C449.599,238.474 454.354,240.239 459.105,241.967C469.807,245.858 482.886,249.955 491.128,258.62C498.263,271.502 474.066,299.405 474.066,299.405C472.285,300.932 470.996,302.966 469.674,304.903C465.248,311.386 456.413,332.615 446.139,320.428C445.039,319.122 444.194,317.588 443.556,316.004C442.203,312.65 440.937,309.226 440.193,305.686C439.326,301.56 438.617,297.334 438.745,293.119Z" style="fill:rgb(43,157,2);"/>
            <path id="madagascar" d="M488.952,308.732C488.952,308.732 486.749,314.492 483.022,326.182C483.022,326.182 479.464,335.67 486.749,340.413C486.749,340.413 495.898,352.611 498.27,321.777C498.27,321.777 504.538,297.72 488.952,308.732Z" style="fill:rgb(43,157,2);"/>
        </g>
        <path id="afriqueOuest" d="M355.421,222.758C357.4,218.49 364.429,219.308 367.754,219.702C375.632,220.636 383.518,221.613 391.311,223.1C401.469,225.039 419.69,227.983 426.29,238.394C429.262,243.081 431.332,248.325 433.105,253.584C434.968,259.109 436.255,264.841 437.15,270.603C439.448,285.398 445.521,302.312 442.059,312.171C434.001,335.113 409.194,336.31 414.877,301.577C417.657,273.583 395.619,273.583 395.619,273.583C364.648,278.149 355.421,260.48 355.421,260.48C346.195,242.214 355.421,222.758 355.421,222.758Z" style="fill:rgb(43,157,2);"/>
        <path id="afriqueNord" d="M377.354,201.713C401.005,195.533 445.837,212.856 445.837,212.856C449.559,225.264 491.128,258.62 491.128,258.62C492.683,261.429 489.651,267.407 479.982,265.5C468.103,263.158 443.6,241.937 424.989,236.326C404.566,230.168 387.381,233.403 373.065,228.667C362.344,225.12 355.421,222.758 355.421,222.758C365.453,201.117 377.354,201.713 377.354,201.713Z" style="fill:rgb(43,157,2);"/>
        <g id="asieEst" transform="matrix(0.0266178,0,0,0.0266178,326.907,21.1931)">
            <g id="asie-est" serif:id="asie est" transform="matrix(37.8187,0,0,37.8187,-12372.5,-864.569)">
                <path d="M675.844,112.157C672.626,112.21 669.029,113.743 665.095,116.219C654.648,122.795 641.828,136.024 627.44,145.86C612.019,156.402 591.949,159.133 589.497,170.928C588.513,175.658 598.837,172.489 604.707,174.864C607.974,176.187 608.665,181.541 608.124,185.387C606.729,195.31 607.145,192.219 606.786,200.203C606.626,203.755 609.07,207.621 611.656,209.11C614.703,210.864 616.111,223.168 619.877,226.564C620.266,226.915 620.555,224.833 622.802,223.212C626.491,220.551 632.715,217.617 633.031,217.514C635.827,216.599 641.721,216.642 644.157,214.663C651.001,209.104 650.104,197.591 648.793,190.327C648.133,186.673 645.204,181.837 642.713,179.182C645.987,173.143 653.634,175.072 655.489,181.06C656.689,184.932 656.797,189.089 658.008,192.957C658.575,194.77 660.728,195.441 662.217,194.248C667.672,189.876 665.685,182.305 667.219,176.501C669.71,167.078 680.34,163.034 682.326,153.345C683.936,145.487 676.039,132.376 686.376,128.032C690.582,126.265 694.777,124.314 699.235,123.347C704.056,121.783 708.831,120.017 713.775,118.899C716.419,118.301 719.17,118.119 721.879,118.227C726.627,118.417 726.823,110.692 716.114,108.95C707.117,107.487 688.689,111.947 675.844,112.157Z" style="fill:rgb(43,157,2);"/>
            </g>
            <g id="japon" transform="matrix(37.5689,0,0,37.5689,-12281.6,-796.203)">
                <path d="M691.402,163.442C691.402,163.442 675.15,190.178 665.54,201.561C665.54,201.561 654.342,216.12 683.46,203.149C683.46,203.149 685.386,201.347 688.015,198.505C696.918,188.879 713.882,167.325 691.402,163.442Z" style="fill:rgb(43,157,2);"/>
            </g>
        </g>
        <g id="Inde" transform="matrix(0.0266178,0,0,0.0266178,326.907,21.1931)">
            <g id="asie-sud" serif:id="asie sud" transform="matrix(37.8187,0,0,37.8187,-12372.5,-864.569)">
                <path d="M619.294,228.565C620.752,222.673 615.347,211.246 609.554,204.896C602.048,196.668 616.114,176.066 602.042,173.977C583.197,171.178 560.321,173.175 538.393,178.065C502.789,186.005 464.053,195.62 473.016,230C473.016,230 494.299,248.082 514.682,230C514.682,230 514.791,223.83 499.515,223.83C494.619,223.711 494.066,216.294 498.82,215.336C506.492,213.79 513.644,219.42 520.411,221.508C525.539,223.091 531.113,223.15 536.092,225.153C546.03,229.15 544.662,244.679 545.827,252.297C546.194,254.701 547.427,258.868 550.168,259.921C553.94,261.369 555.963,258.7 557.686,256.109C563.546,247.298 570.032,230.235 583.522,230C583.522,230 599.194,230.484 599.194,240.438C599.194,240.438 597.923,266.062 600.252,271.568C610.977,281.466 611.302,254.184 611.855,251.98C612.229,250.489 614.436,253.729 615.404,254.923C616.39,256.137 617.215,257.505 618.373,258.556C621.813,261.679 624.729,258.162 626.393,255.009C631.345,245.628 616.99,237.874 619.294,228.565Z" style="fill:rgb(43,157,2);"/>
            </g>
            <g id="sri-lanka" transform="matrix(37.5689,0,0,37.5689,-12281.6,-796.203)">
                <path d="M559.556,259.85C559.145,262.621 559.69,266.452 562.554,267.817C563.547,268.29 564.836,268.803 565.857,268.079C567.026,267.251 567.555,265.753 568.134,264.539C569.21,262.285 569.128,262.255 570.524,260.198C570.951,259.569 571.476,259.006 571.872,258.356C571.975,258.188 572.01,257.976 572,257.78C571.994,257.67 571.909,257.422 571.829,257.498C571.355,257.945 570.787,259.294 570.506,259.85C570.506,259.85 566.016,252.106 559.127,259.85" style="fill:rgb(43,157,2);"/>
            </g>
            <g id="ile-indonésie-2" serif:id="ile indonésie 2" transform="matrix(37.5689,0,0,37.5689,-12281.6,-796.203)">
                <path d="M619.93,277.32C619.93,277.32 626.3,248.387 643.784,252.756C643.784,252.756 659.099,265.393 643.784,280.844C643.784,280.844 621.014,285.181 619.93,277.32Z" style="fill:rgb(43,157,2);"/>
            </g>
        </g>
        <g id="europeEst" transform="matrix(1.00665,0,0,1.00665,-2.42102,-1.81975)">
            <path d="M486.694,104.109C486.694,104.109 480.799,101.305 473.751,113.148C473.308,113.891 464.436,110.975 464.001,111.734C462.319,114.668 462.995,120.178 463.827,126.654C464.304,130.37 463.65,134.102 463.211,137.604C462.604,142.453 461.976,146.751 461.443,148.974C458.773,160.116 451.559,164.993 452.733,170.864C452.908,171.738 453.668,171.119 454.794,170.959C457.06,170.636 460.51,169.802 461.58,170.146C461.58,170.146 472.169,172.263 454.803,185.181C454.803,185.181 448.874,191.323 459.674,196.194C459.674,196.194 466.874,194.288 462.851,205.935C462.851,205.935 456.498,222.299 473.016,230C473.016,230 494.299,248.082 514.682,230C514.682,230 514.791,223.83 499.515,223.83C494.619,223.711 494.066,216.294 498.82,215.336C506.492,213.79 495.377,97.544 486.694,104.109Z" style="fill:rgb(43,157,2);"/>
        </g>
        <g id="europeOuest">
            <path id="islande" d="M332.917,119.256C331.646,115.444 336.57,113.253 336.57,113.253C352.929,107.569 355.312,116.079 355.312,116.079C356.9,127.038 340.699,127.333 340.699,127.333C335.299,125.88 332.917,119.256 332.917,119.256Z" style="fill:rgb(43,157,2);"/>
            <path id="iralnde" d="M360.31,147.428C360.31,147.428 354.041,158.609 359.802,160.134C362.979,162.534 367.069,159.418 367.807,156.12C368.456,153.224 366.628,150.125 364.318,148.497C363.18,147.694 361.73,147.04 360.31,147.428Z" style="fill:rgb(43,157,2);"/>
            <path id="UK" d="M375.049,134.071C375.049,134.071 374.372,143.825 373.694,147.321C373.004,151.458 372.322,154.772 374.923,158.236C377.707,161.944 383.983,157.474 384.706,154.215C384.706,154.215 380.809,140.481 382.334,136.754C382.334,136.754 381.826,127.152 375.049,134.071Z" style="fill:rgb(43,157,2);"/>
            <g id="europe" transform="matrix(1.00665,0,0,1.00665,-2.42102,-1.81975)">
                <path d="M365.105,179.396C365.105,179.396 362.666,185.766 365.647,191.052C365.647,191.052 370.391,198.371 381.369,193.22C385.002,191.458 387.465,173.757 393.771,179.735C396.924,182.725 400.035,185.788 402.784,189.154C402.784,189.154 410.78,200.675 416.608,196.338C416.608,196.338 418.37,191.323 412.542,183.055C412.542,183.055 408.069,175.059 419.725,181.293C419.725,181.293 431.924,184.546 434.092,190.374C434.092,190.374 438.106,193.751 440.559,191.274C446.231,185.547 454.113,168.973 460.186,153.186C465.816,138.552 463.43,115.166 465.094,108.345C469.333,101.402 464.629,95.78 457.355,95.081C448.865,94.265 437.016,96.726 430.84,88.491C430.84,88.491 403.309,113.639 401.986,121.845C401.986,121.845 397.808,131.755 408.5,131.565C410.366,129.536 412.213,127.47 414.309,125.679C416.514,123.796 418.874,122.078 421.357,120.581C423.205,119.467 427.494,117.849 429.71,119.444C431.343,120.62 429.508,124.339 429.537,125.469C429.688,131.504 432.386,138.866 428.656,144.557C426.746,147.47 424.171,149.549 420.516,147.321C420.516,147.321 414.178,144.24 408.5,138.649C400.923,141.805 400.857,150.947 395.008,155.736C391.277,158.791 386.163,159.829 382.433,162.884C377.963,166.544 385.004,171.898 379.756,175.533C375.345,178.588 370.394,172.303 366.217,176.537C365.499,177.265 365.622,178.514 365.105,179.396Z" style="fill:rgb(43,157,2);"/>
            </g>
        </g>
        <g id="Russie" transform="matrix(0.0266178,0,0,0.0266178,326.907,21.1931)">
            <g id="russie" transform="matrix(37.8187,0,0,37.8187,-12372.5,-864.569)">
                <path d="M486.694,104.109C486.694,104.109 491.26,122.723 496.573,149.314C498.838,160.653 494.147,179.056 500.884,188.911C507.258,198.235 522.727,181.449 537.716,178.116C549.989,175.387 576.069,178.347 590.842,172.7C628.8,158.19 659.288,129.042 687.1,113.298C701.295,105.264 721.297,118.204 721.879,118.227C737.112,118.837 719.03,141.052 717.576,143.699C715.418,147.63 721.083,149.486 723.843,148.814C730.568,147.176 732.405,143.818 735.768,138.35C745.302,122.847 743.84,122.073 755.499,108.297C759.394,103.695 765.059,98.559 771.574,98.348C771.574,98.348 795.357,105.07 788.636,86.974C788.636,86.974 709.014,63.708 681.612,83.872C681.612,83.872 662.482,87.491 657.312,62.674C657.312,62.674 646.972,53.884 635.597,69.912C627.045,69.218 627.223,59.376 624.94,53.288C620.886,42.478 611.128,41.589 600.739,44.261C596.811,45.271 593.058,46.977 589.502,48.929C586.464,50.597 583.545,52.595 581.094,55.046C581.094,55.046 561.874,73.614 525.872,81.449C525.872,81.449 495.377,97.544 486.694,104.109Z" style="fill:rgb(43,157,2);"/>
            </g>
            <g id="ile---siberie" serif:id="ile - siberie" transform="matrix(37.5689,0,0,37.5689,-12281.6,-796.203)">
                <path d="M492.531,75.243C492.531,75.243 492.531,85.409 502.273,84.138C502.273,84.138 516.885,66.984 526.839,61.69C526.839,61.69 530.439,41.995 512.862,55.76C512.862,55.76 498.249,71.855 492.531,75.243Z" style="fill:rgb(43,157,2);"/>
            </g>
        </g>
        <g id="australie">
            <path id="ile-indonéseie" serif:id="ile indonéseie" d="M637.641,287.88C637.641,287.88 634.93,289.398 637.641,295.47C637.641,295.47 648.701,303.386 654.014,298.615C654.014,298.615 655.857,287.772 647.508,286.363C647.508,286.363 645.123,287.772 637.641,287.88Z" style="fill:rgb(43,157,2);"/>
            <path id="indonésie" d="M667.475,282.037C667.475,282.037 680.181,279.527 686.534,286.363C686.534,286.363 705.806,302.415 719.994,293.253C719.994,293.253 731.642,281.127 710.676,279.433C710.676,279.433 704.747,279.693 691.193,268.445C691.193,268.445 682.934,259.95 667.263,276.891C667.263,276.891 663.249,280.585 667.475,282.037Z" style="fill:rgb(43,157,2);"/>
            <path id="australie1" serif:id="australie" d="M639.109,330.729C639.109,330.729 634.491,343.307 645.311,355.884C648.34,357.353 651.989,358.526 655.173,356.296C659.25,353.44 663.418,343.969 670.336,346.641C672.596,347.514 673.964,351.482 675.649,352.848C684.843,360.303 698.988,364.997 709.851,357.951C709.851,357.951 723.573,351.683 709.003,318.985C707.402,315.224 705.904,311.388 703.819,307.872C702.703,305.991 701.068,304.456 699.489,302.942C694.149,297.82 688.61,310.281 686.132,311.87C683.586,310.097 681.075,308.216 678.275,306.879C660.014,298.153 651.313,323.057 639.109,330.729Z" style="fill:rgb(43,157,2);"/>
            <path id="tasmanie" d="M699.243,368.145C699.243,368.145 697.549,375.939 704.664,379.496C706.947,379.817 708.935,378.169 709.041,375.869C709.187,372.69 707.507,369.527 706.092,366.853C705.757,366.219 704.81,365.141 704.19,364.768C702.629,363.828 700.675,364.451 699.653,365.869C699.208,366.487 698.839,367.405 699.243,368.145Z" style="fill:rgb(43,157,2);"/>
            <path id="ile-autrsalie" serif:id="ile autrsalie" d="M744.851,306.858C744.851,306.858 742.422,313.711 747.627,319.696C747.627,319.696 749.709,321.691 752.745,318.308C752.745,318.308 756.561,296.362 744.851,306.858Z" style="fill:rgb(43,157,2);"/>
            <path id="Nouvelle--zélande" serif:id="Nouvelle -zélande" d="M744.285,386.93C744.285,386.93 741.198,389.471 748.812,389.133C754.927,386.24 758.659,384.135 764.224,380.284C770.141,376.189 778.001,369.177 774.553,361.085C773.666,359.003 771.961,355.468 769.097,355.417C765.514,355.354 763.612,358.927 761.378,361C760.145,362.145 758.653,362.994 757.442,364.163C751.062,370.326 746.348,378.283 744.285,386.93" style="fill:rgb(43,157,2);"/>
        </g>
    </g>
</svg>
